<svg xmlns="http://www.w3.org/2000/svg" >
  <symbol id="bag" viewBox="0 0 48 48">
    <path d="M8.75216 16.9953C8.63818 15.542 9.78674 14.2998 11.2445 14.2998H36.7555C38.2133 14.2998 39.3618 15.542 39.2478 16.9953L37.5851 38.1953C37.4831 39.4962 36.3976 40.4998 35.0927 40.4998H12.9073C11.6024 40.4998 10.5169 39.4962 10.4149 38.1953L8.75216 16.9953Z" stroke="white"/>
    <path d="M15.004 24.4857C15.004 24.4857 14.5437 7 23.5 7C32.4563 7 31.996 24.4857 31.996 24.4857" stroke="white"/>
  </symbol>
</svg>

<svg xmlns="http://www.w3.org/2000/svg" >
  <symbol id="cart" viewBox="0 0 16 17">
    <path d="M1.25468 7.56595C1.13958 6.11201 2.2884 4.86865 3.74689 4.86865H12.2531C13.7116 4.86865 14.8604 6.11201 14.7453 7.56595L14.2203 14.1975C14.1174 15.4977 13.0323 16.5002 11.7281 16.5002H4.27189C2.96769 16.5002 1.88261 15.4977 1.77968 14.1975L1.25468 7.56595Z" stroke="#333333"/>
    <path d="M3.99999 9.5C3.99999 9.5 3.78329 1 8.00001 1C12.2167 1 12 9.5 12 9.5" stroke="#333333"/>
  </symbol>
</svg>